<svg width="40" height="40" viewBox="0 0 40 40" fill="none" xmlns="http://www.w3.org/2000/svg">
<rect x="1" y="1" width="38" height="38" rx="19" fill="#F0F1F6" stroke="white" stroke-width="2"/>
<mask id="mask0_1403_8068" style="mask-type:alpha" maskUnits="userSpaceOnUse" x="1" y="1" width="38" height="37">
<circle cx="20" cy="19.8" r="18.2" fill="#F0F1F6"/>
</mask>
<g mask="url(#mask0_1403_8068)">
<path d="M12.3472 31.7488L14.3463 36.686L12.3472 40.7452H8.13037C8.13037 35.9738 10.5298 33.1806 12.3472 31.7488Z" fill="#A456F1"/>
<path d="M31.9189 40.7452H27.7021L25.6879 36.7946L27.7021 31.7488C29.5195 33.1806 31.9189 35.9738 31.9189 40.7452Z" fill="#A456F1"/>
<path d="M8.71608 36.9154C8.35479 38.0202 8.13037 39.2902 8.13037 40.7452H10.3753C10.3753 37.3238 11.6091 34.9198 12.9774 33.3052L12.3472 31.7488C10.6385 33.0946 9.39001 34.8543 8.71608 36.9154Z" fill="#924AE6"/>
<path d="M27.7019 31.7488V40.7453H12.347V31.7488C13.4545 30.876 14.3453 30.5099 14.3453 30.5099H25.7037C25.7037 30.5099 26.5945 30.8761 27.7019 31.7488Z" fill="#16212D"/>
<path d="M12.347 34.1262C13.0636 33.0957 13.8731 32.3152 14.592 31.7488C15.6994 30.876 16.5902 30.5099 16.5902 30.5099H14.3453C14.3452 30.5096 13.9966 30.6511 13.466 30.9733C13.4129 31.0055 13.3579 31.0391 13.3013 31.0748C13.2447 31.1104 13.1864 31.1478 13.1266 31.1871C13.0368 31.246 12.9438 31.3091 12.8478 31.3763C12.7838 31.4212 12.7187 31.4679 12.6524 31.5166C12.5529 31.5897 12.451 31.6671 12.3471 31.7488V34.1262H12.347Z" fill="#0A0F15"/>
<path d="M20.0246 35.6092L14.89 28.9H25.1592L20.0246 35.6092Z" fill="#A456F1"/>
<path d="M15.8407 17.8705C16.3525 16.5957 16.2504 14.9661 13.8199 13.7675C11.3703 12.5596 9.08267 13.1455 7.61343 14.1585C7.25118 14.4082 7.07625 14.844 7.16963 15.2641C7.5482 16.968 8.82963 18.8884 11.4832 19.5885C14.1157 20.2831 15.3289 19.1453 15.8407 17.8705Z" fill="#A456F1"/>
<path d="M7.23372 15.5213C7.68029 17.1571 8.96219 18.9233 11.4829 19.5884C13.7649 20.1905 14.9798 19.4157 15.5965 18.3684C12.5623 14.5109 9.12859 14.8841 7.23372 15.5213Z" fill="#EBBFFA"/>
<path d="M24.1592 17.8705C23.6474 16.5957 23.7495 14.9661 26.18 13.7675C28.6296 12.5596 30.9172 13.1455 32.3864 14.1585C32.7487 14.4082 32.9236 14.844 32.8302 15.2641C32.4517 16.968 31.1702 18.8884 28.5167 19.5885C25.8841 20.2831 24.671 19.1453 24.1592 17.8705Z" fill="#A456F1"/>
<path d="M32.7662 15.5213C32.3196 17.1571 31.0377 18.9233 28.517 19.5884C26.235 20.1905 25.02 19.4157 24.4034 18.3684C27.4376 14.5109 30.8713 14.8841 32.7662 15.5213Z" fill="#EBBFFA"/>
<path d="M32.1825 23.3749C32.1825 28.9051 26.7673 31.3272 20.0874 31.3272C13.4075 31.3272 7.99231 28.905 7.99231 23.3749C7.99231 17.8447 13.4075 13.3615 20.0874 13.3615C26.7674 13.3615 32.1825 17.8447 32.1825 23.3749Z" fill="#A456F1"/>
<path opacity="0.15" d="M13.6292 14.9074C10.2419 16.6819 7.99231 19.8107 7.99231 23.3747C7.99231 28.1287 11.994 30.5858 17.3607 31.182C9.65688 26.5802 10.6617 20.3905 13.6292 14.9074Z" fill="#2909A8"/>
<path d="M14.7742 24.9285C15.4968 24.9285 16.0826 24.4693 16.0826 23.903C16.0826 23.3366 15.4968 22.8775 14.7742 22.8775C14.0516 22.8775 13.4658 23.3366 13.4658 23.903C13.4658 24.4693 14.0516 24.9285 14.7742 24.9285Z" fill="#EBBFFA"/>
<path d="M25.0293 24.9283C25.752 24.9283 26.3377 24.4692 26.3377 23.9028C26.3377 23.3365 25.752 22.8773 25.0293 22.8773C24.3067 22.8773 23.7209 23.3365 23.7209 23.9028C23.7209 24.4692 24.3067 24.9283 25.0293 24.9283Z" fill="#EBBFFA"/>
<path d="M16.0435 22.9652C16.9176 22.9652 17.6262 22.2566 17.6262 21.3826C17.6262 20.5085 16.9176 19.8 16.0435 19.8C15.1695 19.8 14.4609 20.5085 14.4609 21.3826C14.4609 22.2566 15.1695 22.9652 16.0435 22.9652Z" fill="white"/>
<path d="M16.0435 22.1739C15.825 22.1739 15.6478 22.0123 15.6478 21.8131V20.9521C15.6478 20.7528 15.825 20.5913 16.0435 20.5913C16.262 20.5913 16.4391 20.7528 16.4391 20.9521V21.8131C16.4391 22.0123 16.262 22.1739 16.0435 22.1739Z" fill="#16212D"/>
<path d="M24.7464 22.3987C24.4534 22.3987 24.2159 22.1613 24.2159 21.8683V21.0949C24.2159 20.8019 24.4534 20.5645 24.7464 20.5645C25.0393 20.5645 25.2768 20.8019 25.2768 21.0949V21.8683C25.2768 22.1613 25.0393 22.3987 24.7464 22.3987Z" fill="#495059"/>
<path d="M21.5707 24.5479C21.3456 24.5479 21.1632 24.7283 21.1632 24.9508C21.1632 25.1569 20.9937 25.3245 20.7853 25.3245C20.5769 25.3245 20.4073 25.1569 20.4073 24.9508C20.4073 24.7283 20.2249 24.5479 19.9999 24.5479C19.7748 24.5479 19.5924 24.7283 19.5924 24.9508C19.5924 25.1569 19.4229 25.3245 19.2145 25.3245C19.0061 25.3245 18.8366 25.1569 18.8366 24.9508C18.8366 24.7283 18.6541 24.5479 18.4291 24.5479C18.204 24.5479 18.0216 24.7283 18.0216 24.9508C18.0216 25.6012 18.5567 26.1305 19.2145 26.1305C19.5151 26.1305 19.7898 26.0197 19.9999 25.8376C20.2099 26.0197 20.4847 26.1305 20.7853 26.1305C21.443 26.1305 21.9781 25.6013 21.9781 24.9508C21.9781 24.7283 21.7957 24.5479 21.5707 24.5479Z" fill="white"/>
<path d="M10.8999 23.7565C10.6622 23.7565 10.583 23.6656 10.55 23.5332C10.5171 23.4009 10.6488 23.2467 10.8999 23.163C11.4933 22.9652 12.9879 22.6304 13.6921 22.7234C13.9824 22.7618 14.1868 23.0284 14.1484 23.3187C14.11 23.6093 13.843 23.8134 13.553 23.7751C13.057 23.7094 10.8668 23.7206 10.8999 23.7565Z" fill="white"/>
<path d="M28.9023 24.0143C29.1399 24.0143 29.2192 23.9234 29.2521 23.7911C29.285 23.6587 29.1534 23.5045 28.9023 23.4208C28.3088 23.223 26.8142 22.8882 26.11 22.9812C25.8197 23.0196 25.6153 23.2862 25.6537 23.5765C25.6921 23.8671 25.9591 24.0713 26.2491 24.0329C26.7452 23.9672 28.9353 23.9784 28.9023 24.0143Z" fill="white"/>
<path d="M11.5862 26.2322C11.3623 26.3119 11.2572 26.2529 11.1817 26.1392C11.1063 26.0256 11.1786 25.8362 11.387 25.6731C11.8797 25.2876 13.1753 24.4707 13.8699 24.322C14.1562 24.2608 14.4383 24.4434 14.4995 24.7297C14.5608 25.0163 14.3778 25.2982 14.0917 25.3594C13.6024 25.464 11.543 26.2094 11.5862 26.2322Z" fill="white"/>
<path d="M28.2159 26.49C28.4398 26.5697 28.545 26.5107 28.6204 26.397C28.6958 26.2834 28.6235 26.094 28.4151 25.9309C27.9224 25.5454 26.6268 24.7285 25.9323 24.5798C25.6459 24.5186 25.3639 24.7011 25.3026 24.9875C25.2413 25.2741 25.4243 25.556 25.7104 25.6172C26.1997 25.7218 28.2592 26.4672 28.2159 26.49Z" fill="white"/>
<path d="M28.0377 21.1839C24.8585 21.1839 21.9211 20.749 19.7813 20.3149C16.2977 19.6082 12.975 18.519 10.665 17.3266C10.4047 17.1923 10.3026 16.8722 10.437 16.6119C10.5713 16.3515 10.8915 16.2495 11.1517 16.3839C14.7867 18.2602 23.5512 20.8792 31.5942 19.92C31.8844 19.8857 32.1491 20.0929 32.1837 20.3839C32.2184 20.6748 32.0108 20.9387 31.7199 20.9735C30.4781 21.1216 29.2405 21.1839 28.0377 21.1839Z" fill="#16212D"/>
<path d="M23.1301 19.6542C22.9147 19.7227 22.7695 19.9138 22.7695 20.1291V21.4416C22.7695 22.4579 23.6036 23.3235 24.6756 23.3596C25.8011 23.3975 26.7261 22.5444 26.7261 21.4865V20.1291C26.7261 19.9138 26.5809 19.7227 26.3654 19.6542C25.3157 19.321 24.1799 19.321 23.1301 19.6542Z" fill="#16212D"/>
<path d="M16.3132 16.5246C15.2572 16.5246 14.2905 15.9321 13.8112 14.9911L13.3758 14.1364C12.9535 13.3073 13.712 12.3695 14.6111 12.6091L15.3638 12.8097C15.9063 12.9543 16.4377 12.5382 16.423 11.9769C16.4183 11.8003 16.4254 11.6206 16.4453 11.4387C16.4761 11.1567 16.5371 10.8836 16.6249 10.6227C17.7281 7.34789 22.4468 7.34789 23.5498 10.6227C23.6377 10.8836 23.6987 11.1567 23.7295 11.4387C23.7494 11.6206 23.7565 11.8003 23.7518 11.9769C23.737 12.5382 24.2685 12.9543 24.811 12.8097L25.5637 12.6091C26.4628 12.3695 27.2213 13.3073 26.799 14.1364L26.3636 14.9911C25.8843 15.932 24.9176 16.5246 23.8616 16.5246H16.3132Z" fill="#16212D"/>
<path d="M21.2785 13.4514L20.4439 12.4805L21.2785 11.5096C21.439 11.6731 21.6979 11.6727 21.8578 11.5081C22.0182 11.3429 22.0182 11.0751 21.8578 10.91C21.7617 10.811 21.6298 10.7718 21.505 10.7914C21.5241 10.663 21.486 10.5273 21.3899 10.4283C21.2294 10.2631 20.9693 10.2631 20.8089 10.4283C20.649 10.5929 20.6485 10.8593 20.8073 11.0246L19.9999 11.9639L19.1924 11.0246C19.3512 10.8593 19.3508 10.5928 19.1909 10.4283C19.0304 10.2631 18.7703 10.2631 18.6099 10.4283C18.5137 10.5272 18.4757 10.6629 18.4947 10.7914C18.3699 10.7718 18.2381 10.811 18.1419 10.9099C17.9815 11.0751 17.9815 11.3429 18.1419 11.508C18.3018 11.6726 18.5607 11.6731 18.7212 11.5096L19.5558 12.4805L18.7212 13.4513C18.5607 13.2878 18.3018 13.2883 18.1419 13.4529C17.9815 13.6181 17.9815 13.8858 18.1419 14.051C18.2381 14.15 18.3699 14.1892 18.4947 14.1695C18.4757 14.298 18.5138 14.4337 18.6099 14.5327C18.7703 14.6978 19.0304 14.6978 19.1909 14.5327C19.3507 14.3681 19.3512 14.1016 19.1924 13.9363L19.9999 12.997L20.8073 13.9363C20.6485 14.1016 20.6489 14.3681 20.8089 14.5327C20.9693 14.6978 21.2294 14.6978 21.3899 14.5327C21.486 14.4337 21.5241 14.298 21.505 14.1695C21.6298 14.1892 21.7616 14.1499 21.8578 14.051C22.0182 13.8858 22.0182 13.6181 21.8578 13.4529C21.6979 13.2883 21.439 13.2879 21.2785 13.4514Z" fill="white"/>
<path d="M13.8673 30.6804C13.2738 30.8782 12.2847 31.6696 11.889 32.0652C15.2521 36.2195 21.5825 37.8022 23.1651 37.8022C24.7477 37.8022 26.9238 36.8131 27.7151 36.4174C20.1977 35.6261 15.6477 32.263 13.8673 30.6804Z" fill="#DA8E64"/>
</g>
</svg>
